# xmcd
#
# Track frame offsets: 
#        150
#        11905
#        24980
#        43098
#        58295
#        72753
#        88515
#        102896
#        121169
#        136752
#        171677
#        190300
#        206396
#        220583
#        237631
#        256069
#        271275
#        285947
#        300447
#
# Disc length: 4216 seconds
#
# Revision: 0
# Processed by: cddbd v1.5.2PL0 Copyright (c) Steve Scherf et al.
# Submitted via: ExactAudioCopy v1.0b3
#
DISCID=0b107613
DTITLE=Various Artist - Trance The Vocal Session Vol. 20 - CD 2
DYEAR=1900
DGENRE=
TTITLE0=Markus Schulz Feat. Khaz - Dark Heart Waiting (Radio Mix)
TTITLE1=Strobe - Liebe (Radio Mix)
TTITLE2=Roger Shah and Tenisha Feat. Lorilee - Catch A Cloud (Radio Mix)
TTITLE3=Aboutblank and KLC - Feel The Love (Radio Mix)
TTITLE4=DJ Sequence - Don't You Want Me (CJ Stone Radio Mix)
TTITLE5=Andy Moor Feat. Carrie Skipper - She Moves (Original Mix Edit)
TTITLE6=Eximinds Feat. Aelyn - I Feel You (Radio Edit)
TTITLE7=Susana Feat. Omnia And The Blizzard - Closer (Radio Mix)
TTITLE8=LCK Feat. Lenka Brazda - Want U (Max Savietto Radio Edit)
TTITLE9=Sophie Sugar Vs. Sunlounger - Lost Together (Armin Van Buuren 
TTITLE9=Mash Up)
TTITLE10=Henry V Feat. Sari - 3 Words Of Love (Original Edit)
TTITLE11=Nash and Pepper Feat. Rogue Raven - Am I Wrong (Radio Edit)
TTITLE12=Fio Feat. Karin Nagi - Like An Angel (Klubjumpers Radio Edit)
TTITLE13=Mr. 9 Feat. Oonagh Pres. Oriana - Bright Lights (Rene Ablaze 
TTITLE13=Radio Mix)
TTITLE14=Hysteria! - Drifting (Original Mix)
TTITLE15=Stereo Lovers Feat. Narany - Don't Let Go (Short Version)
TTITLE16=Max Graham Feat. Neev Kennedy - Sun In The Winter (Edit)
TTITLE17=Dash Berlin Feat. Solid Sessions - Janeiro (Radio Edit)
TTITLE18=Chicane - Hiding All The Stars (Radio Edit)
EXTD=
EXTT0=
EXTT1=
EXTT2=
EXTT3=
EXTT4=
EXTT5=
EXTT6=
EXTT7=
EXTT8=
EXTT9=
EXTT10=
EXTT11=
EXTT12=
EXTT13=
EXTT14=
EXTT15=
EXTT16=
EXTT17=
EXTT18=
PLAYORDER=
